<?xml version="1.0" encoding="iso-8859-1"?>
<!-- Generator: Adobe Illustrator 19.0.0, SVG Export Plug-In . SVG Version: 6.00 Build 0)  -->
<svg version="1.1" id="Capa_1" xmlns="http://www.w3.org/2000/svg" xmlns:xlink="http://www.w3.org/1999/xlink" x="0px" y="0px"
	 viewBox="0 0 464 464" style="enable-background:new 0 0 464 464;" xml:space="preserve">
<path style="fill:#ED1C24;" d="M448,316H16v-90.08c0.002-3.815,1.367-7.503,3.848-10.4l35.536-41.448
	c5.707-6.658,10.28-14.21,13.536-22.352L108,54.056c2.427-6.066,8.299-10.047,14.832-10.056h218.336
	c6.533,0.009,12.405,3.99,14.832,10.056l39.056,97.648c3.256,8.142,7.829,15.694,13.536,22.352l35.536,41.448
	c2.494,2.898,3.867,6.593,3.872,10.416L448,316z"/>
<path style="fill:#E6E6E6;" d="M8,316h448c4.418,0,8,3.582,8,8v40c0,4.418-3.582,8-8,8H8c-4.418,0-8-3.582-8-8v-40
	C0,319.582,3.582,316,8,316z"/>
<path style="fill:#29ABE2;" d="M96,164h272l-32-88H128L96,164z"/>
<g>
	<path style="fill:#F2F2F2;" d="M16,236h96v48H16V236z"/>
	<path style="fill:#F2F2F2;" d="M352,236h96v48h-96V236z"/>
</g>
<g>
	<path style="fill:#FBB03B;" d="M16,236h32v48H16V236z"/>
	<path style="fill:#FBB03B;" d="M416,236h32v48h-32V236z"/>
</g>
<path style="fill:#CCCCCC;" d="M152,236h160v80H152V236z"/>
<g>
	<path style="fill:#333333;" d="M32,372h80v48H32V372z"/>
	<path style="fill:#333333;" d="M352,372h80v48h-80V372z"/>
	<path style="fill:#333333;" d="M400,164h40v-40h-56"/>
	<path style="fill:#333333;" d="M64,164H16v-40h64"/>
</g>
<g>
	<path style="fill:#4D4D4D;" d="M176,236h16v80h-16V236z"/>
	<path style="fill:#4D4D4D;" d="M208,236h16v80h-16V236z"/>
	<path style="fill:#4D4D4D;" d="M240,236h16v80h-16V236z"/>
	<path style="fill:#4D4D4D;" d="M272,236h16v80h-16V236z"/>
</g>
<g>
</g>
<g>
</g>
<g>
</g>
<g>
</g>
<g>
</g>
<g>
</g>
<g>
</g>
<g>
</g>
<g>
</g>
<g>
</g>
<g>
</g>
<g>
</g>
<g>
</g>
<g>
</g>
<g>
</g>
</svg>
