<?xml version="1.0" encoding="iso-8859-1"?>
<!-- Generator: Adobe Illustrator 19.0.0, SVG Export Plug-In . SVG Version: 6.00 Build 0)  -->
<svg version="1.1" id="Capa_1" xmlns="http://www.w3.org/2000/svg" xmlns:xlink="http://www.w3.org/1999/xlink" x="0px" y="0px"
	 viewBox="0 0 512 512" style="enable-background:new 0 0 512 512;" xml:space="preserve">
<path style="fill:#FFE51E;" d="M256.067,56.883c85.334,0,227.559,42.667,227.559,227.559S483.625,512,440.958,512
	s-99.557-42.667-184.891-42.667S115.052,512,71.176,512c-47.546,0-42.667-170.669-42.667-227.559
	C28.508,99.55,170.732,56.883,256.067,56.883"/>
<path style="fill:#F3D2A2;" d="M85.398,278.226c0-121.261,76.417-219.566,170.669-219.566s170.669,98.305,170.669,219.566
	c0,121.246-76.417,219.566-170.669,219.566S85.398,399.472,85.398,278.226"/>
<path style="fill:#DF1F32;" d="M256.067,440.895c-33.38,0-50.845-16.498-52.722-18.39c-5.561-5.561-5.561-14.55,0-20.11
	c5.504-5.519,14.408-5.547,19.968-0.142c0.739,0.668,11.464,10.197,32.754,10.197c21.603,0,32.328-9.799,32.783-10.226
	c5.674-5.319,14.606-5.163,20.025,0.427c5.39,5.575,5.405,14.365-0.086,19.855C306.912,424.397,289.447,440.895,256.067,440.895"/>
<path style="fill:#C1694F;" d="M270.289,369.783h-28.445c-7.851,0-14.222-6.357-14.222-14.222c0-7.865,6.372-14.222,14.222-14.222
	h28.445c7.865,0,14.222,6.357,14.222,14.222C284.512,363.425,278.155,369.783,270.289,369.783"/>
<path style="fill:#FFE51E;" d="M43.649,355.56c-0.427-4.622-0.91-9.216-0.91-14.222c0-71.127,42.667,8.007,42.667-42.667
	c0-50.688,28.445-56.904,56.89-85.349l42.667-42.667c0,0,71.112,42.667,128.002,42.667s113.779,28.459,113.779,85.349
	s42.667-28.459,42.667,42.667c0,5.049-0.483,9.572-0.825,14.222h14.919c0.128-21.006,0.128-44.544,0.128-71.112
	c0-184.891-142.224-256.003-227.559-256.003S28.516,99.557,28.516,284.448c0,16.47-0.412,42.469,0.17,71.112H43.649z"/>
<path style="fill:#A7A9AC;" d="M113.843,85.334h284.448V71.112L355.624,56.89l-28.445-42.667l-42.667,14.222L256.067,0
	l-28.445,28.445l-42.667-14.222L156.51,56.89l-42.667,14.222C113.843,71.112,113.843,85.334,113.843,85.334z"/>
<g>
	<path style="fill:#F1F2F2;" d="M241.845,49.771c0-11.79,6.372-21.334,14.222-21.334c7.865,0,14.222,9.544,14.222,21.334
		s-6.357,21.334-14.222,21.334C248.216,71.105,241.845,61.561,241.845,49.771"/>
	<path style="fill:#F1F2F2;" d="M184.955,56.883c0-7.851,6.372-14.222,14.222-14.222c7.851,0,14.222,6.372,14.222,14.222
		s-6.372,14.222-14.222,14.222C191.327,71.105,184.955,64.733,184.955,56.883"/>
	<path style="fill:#F1F2F2;" d="M298.734,56.883c0-7.851,6.357-14.222,14.222-14.222s14.222,6.372,14.222,14.222
		s-6.357,14.222-14.222,14.222C305.091,71.105,298.734,64.733,298.734,56.883"/>
</g>
<g>
	<path style="fill:#662113;" d="M184.955,327.115c-7.851,0-14.222-6.357-14.222-14.222v-28.445c0-7.865,6.372-14.222,14.222-14.222
		c7.851,0,14.222,6.357,14.222,14.222v28.445C199.177,320.758,192.805,327.115,184.955,327.115"/>
	<path style="fill:#662113;" d="M327.179,327.115c-7.865,0-14.222-6.357-14.222-14.222v-28.445c0-7.865,6.357-14.222,14.222-14.222
		s14.222,6.357,14.222,14.222v28.445C341.401,320.758,335.044,327.115,327.179,327.115"/>
</g>
<g>
</g>
<g>
</g>
<g>
</g>
<g>
</g>
<g>
</g>
<g>
</g>
<g>
</g>
<g>
</g>
<g>
</g>
<g>
</g>
<g>
</g>
<g>
</g>
<g>
</g>
<g>
</g>
<g>
</g>
</svg>
